<?xml version="1.0" encoding="UTF-8"?>
<svg viewBox="0 0 700 400" xmlns="http://www.w3.org/2000/svg">
  <!-- Gradient Definitions -->
  <defs>
    <linearGradient id="dbGradient" x1="0%" y1="0%" x2="100%" y2="100%">
      <stop offset="0%" stop-color="#40b37c"/>
      <stop offset="100%" stop-color="#359262"/>
    </linearGradient>
    <linearGradient id="barGradient1" x1="0%" y1="0%" x2="0%" y2="100%">
      <stop offset="0%" stop-color="#8878e8"/>
      <stop offset="100%" stop-color="#6c5ce7"/>
    </linearGradient>
    <linearGradient id="barGradient2" x1="0%" y1="0%" x2="0%" y2="100%">
      <stop offset="0%" stop-color="#5c10a2"/>
      <stop offset="100%" stop-color="#4b0082"/>
    </linearGradient>
    <linearGradient id="barGradient3" x1="0%" y1="0%" x2="0%" y2="100%">
      <stop offset="0%" stop-color="#9ba478"/>
      <stop offset="100%" stop-color="#8b9467"/>
    </linearGradient>
    <linearGradient id="qGradient" x1="0%" y1="0%" x2="100%" y2="100%">
      <stop offset="0%" stop-color="#7f6fec"/>
      <stop offset="100%" stop-color="#6c5ce7"/>
    </linearGradient>
    <filter id="shadow" x="-20%" y="-20%" width="140%" height="140%">
      <feDropShadow dx="2" dy="2" stdDeviation="2" flood-color="rgba(0,0,0,0.3)"/>
    </filter>
  </defs>
  
  <!-- Left Side: Visualization Icon with Embellishments -->
  <g transform="translate(70, 70) scale(1.2)">
    <!-- Database Cylinder with enhanced details -->
    <ellipse cx="80" cy="40" rx="62" ry="26" fill="#2a6e4a" filter="url(#shadow)"/>
    <ellipse cx="80" cy="40" rx="60" ry="25" fill="url(#dbGradient)" stroke="#4b0082" stroke-width="3"/>
    <path d="M20,40 v80 a60,25 0 0,0 120,0 v-80" fill="url(#dbGradient)" stroke="#4b0082" stroke-width="3"/>
    <ellipse cx="80" cy="120" rx="60" ry="25" fill="url(#dbGradient)" stroke="#4b0082" stroke-width="3"/>
    
    <!-- Database Highlights -->
    <path d="M50,40 q30,-15 60,0" stroke="rgba(255,255,255,0.5)" stroke-width="2" fill="none"/>
    <path d="M50,120 q30,-15 60,0" stroke="rgba(255,255,255,0.5)" stroke-width="2" fill="none"/>
    
    <!-- Grid Lines on Database -->
    <path d="M40,35 v85 M60,32 v88 M80,30 v90 M100,32 v88 M120,35 v85" 
          stroke="rgba(75,0,130,0.15)" stroke-width="1" fill="none"/>
    
    <!-- Visualization Elements -->
    <g transform="translate(80, 80) scale(1.1)">
      <!-- Enhanced Bar Chart -->
      <rect x="29" y="-71" width="17" height="52" fill="#4b0082" opacity="0.2" rx="3" ry="3" filter="url(#shadow)"/>
      <rect x="30" y="-70" width="15" height="50" fill="url(#barGradient1)" stroke="#4b0082" stroke-width="1" rx="3" ry="3"/>
      
      <rect x="54" y="-91" width="17" height="72" fill="#4b0082" opacity="0.2" rx="3" ry="3" filter="url(#shadow)"/>
      <rect x="55" y="-90" width="15" height="70" fill="url(#barGradient2)" stroke="#4b0082" stroke-width="1" rx="3" ry="3"/>
      
      <rect x="79" y="-61" width="17" height="42" fill="#4b0082" opacity="0.2" rx="3" ry="3" filter="url(#shadow)"/>
      <rect x="80" y="-60" width="15" height="40" fill="url(#barGradient3)" stroke="#4b0082" stroke-width="1" rx="3" ry="3"/>
      
      <!-- Enhanced Line Chart with decorative elements -->
      <path d="M-81,-61 L-56,-81 L-31,-51 L-6,-71" stroke="#435f94" stroke-width="5" stroke-linecap="round" opacity="0.3"/>
      <path d="M-80,-60 L-55,-80 L-30,-50 L-5,-70" stroke="#6495ed" stroke-width="4" fill="none" stroke-linecap="round"/>
      
      <!-- Enhanced Data Points -->
      <circle cx="-80" cy="-60" r="6" fill="#4b0082" opacity="0.2"/>
      <circle cx="-80" cy="-60" r="5" fill="#6495ed" stroke="#4b0082" stroke-width="1"/>
      <circle cx="-55" cy="-80" r="6" fill="#4b0082" opacity="0.2"/>
      <circle cx="-55" cy="-80" r="5" fill="#6495ed" stroke="#4b0082" stroke-width="1"/>
      <circle cx="-30" cy="-50" r="6" fill="#4b0082" opacity="0.2"/>
      <circle cx="-30" cy="-50" r="5" fill="#6495ed" stroke="#4b0082" stroke-width="1"/>
      <circle cx="-5" cy="-70" r="6" fill="#4b0082" opacity="0.2"/>
      <circle cx="-5" cy="-70" r="5" fill="#6495ed" stroke="#4b0082" stroke-width="1"/>
      
      <!-- Grid Lines -->
      <path d="M-90,-20 H90 M-90,-40 H90 M-90,-60 H90 M-90,-80 H90 M-90,-100 H90" 
            stroke="rgba(75,0,130,0.07)" stroke-width="1" stroke-dasharray="2 3"/>
      <path d="M-80,-110 V-20 M-60,-110 V-20 M-40,-110 V-20 M-20,-110 V-20 M0,-110 V-20 M20,-110 V-20 M40,-110 V-20 M60,-110 V-20 M80,-110 V-20" 
            stroke="rgba(75,0,130,0.07)" stroke-width="1" stroke-dasharray="2 3"/>
    </g>
    
    <!-- Enhanced Connecting Lines -->
    <path d="M81,61 C121,31 121,111 161,81" stroke="#2a0052" stroke-width="5" fill="none" stroke-dasharray="6 3" opacity="0.3"/>
    <path d="M80,60 C120,30 120,110 160,80" stroke="#4b0082" stroke-width="4" fill="none" stroke-dasharray="6 3"/>
    
    <path d="M31,81 C71,111 71,31 111,61" stroke="#2a0052" stroke-width="5" fill="none" stroke-dasharray="6 3" opacity="0.3"/>
    <path d="M30,80 C70,110 70,30 110,60" stroke="#4b0082" stroke-width="4" fill="none" stroke-dasharray="6 3"/>
    
    <!-- Enhanced Circular Data Points -->
    <circle cx="80" cy="140" r="13" fill="#726044" opacity="0.3"/>
    <circle cx="80" cy="140" r="12" fill="#8b9467" stroke="#4b0082" stroke-width="1"/>
    
    <circle cx="120" cy="120" r="11" fill="#4b0082" opacity="0.3"/>
    <circle cx="120" cy="120" r="10" fill="#6c5ce7" stroke="#4b0082" stroke-width="1"/>
    
    <circle cx="60" cy="110" r="9" fill="#1e573a" opacity="0.3"/>
    <circle cx="60" cy="110" r="8" fill="#359262" stroke="#4b0082" stroke-width="1"/>
    
    <circle cx="95" cy="155" r="10" fill="#3a5f9c" opacity="0.3"/>
    <circle cx="95" cy="155" r="9" fill="#6495ed" stroke="#4b0082" stroke-width="1"/>
  </g>
  
  <!-- Right Side: QW Text - Enhanced -->
  <g transform="translate(400, 100)">
    <!-- Q Letter Shadow -->
    <path d="M2,2 Q-43,-3 -63,22 Q-83,47 -83,82 Q-83,117 -63,142 Q-43,167 2,162 
             Q47,167 67,142 Q87,117 87,82 Q87,47 67,22 Q47,-3 2,2 Z 
             M2,132 Q-28,137 -43,117 Q-58,97 -58,82 Q-58,67 -43,47 Q-28,27 2,32 
             Q32,27 47,47 Q62,67 62,82 Q62,97 47,117 Q32,137 2,132 Z" 
          fill="#4b0082" opacity="0.2" transform="translate(2,2)" filter="url(#shadow)"/>
          
    <!-- Q Letter - Outline with inner cutout -->
    <path d="M0,0 Q-45,-5 -65,20 Q-85,45 -85,80 Q-85,115 -65,140 Q-45,165 0,160 
             Q45,165 65,140 Q85,115 85,80 Q85,45 65,20 Q45,-5 0,0 Z 
             M0,130 Q-30,135 -45,115 Q-60,95 -60,80 Q-60,65 -45,45 Q-30,25 0,30 
             Q30,25 45,45 Q60,65 60,80 Q60,95 45,115 Q30,135 0,130 Z" 
          fill="url(#qGradient)" stroke="#4b0082" stroke-width="3"/>
    
    <!-- Q Highlight -->
    <path d="M-20,35 Q-10,25 10,25 Q30,25 40,40" 
          stroke="rgba(255,255,255,0.5)" stroke-width="2" fill="none"/>
          
    <!-- Q Tail Shadow -->
    <path d="M39,115 L82,157" stroke="#2a0052" stroke-width="18" stroke-linecap="round" opacity="0.3"/>
          
    <!-- Q Tail - Solid - Longer and Thicker -->
    <path d="M37,113 L80,155" stroke="#4b0082" stroke-width="16" stroke-linecap="round"/>
    
    <!-- W Letter Shadow -->
    <path d="M112,32 L147,152 L172,62 L197,152 L232,32" 
          fill="none" stroke="#1e573a" stroke-width="22" stroke-linecap="round" stroke-linejoin="round" opacity="0.3"/>
    
    <!-- W Letter - Pure Green with no black -->
    <path d="M110,30 L145,150 L170,60 L195,150 L230,30" 
          fill="none" stroke="#359262" stroke-width="20" stroke-linecap="round" stroke-linejoin="round"/>
          
    <!-- W Highlight -->
    <path d="M113,35 L145,145" 
          stroke="rgba(255,255,255,0.3)" stroke-width="3" fill="none" stroke-linecap="round"/>
    <path d="M195,145 L227,35" 
          stroke="rgba(255,255,255,0.3)" stroke-width="3" fill="none" stroke-linecap="round"/>
  </g>
  
  <!-- Decorative Elements -->
  <circle cx="350" cy="200" r="160" fill="none" stroke="#6c5ce7" stroke-width="1" stroke-opacity="0.05"/>
  <circle cx="350" cy="200" r="180" fill="none" stroke="#359262" stroke-width="1" stroke-opacity="0.05"/>
  <circle cx="350" cy="200" r="200" fill="none" stroke="#4b0082" stroke-width="1" stroke-opacity="0.05"/>
</svg>